<?xml version="1.0" encoding="UTF-8"?>
<svg id="Layer_1" data-name="Layer 1" xmlns="http://www.w3.org/2000/svg" viewBox="0 0 256 256">
  <defs>
    <style>
      .cls-1 {
        fill: #fff;
      }

      .cls-2 {
        fill: #576fbc;
      }
    </style>
  </defs>
  <circle class="cls-2" cx="128" cy="128" r="128"/>
  <path class="cls-1" d="M170.93,124.41c.8,15.21-5.05,28.07-14.96,38.95-4.86,5.34-7.13,10.82-7.01,17.85,.07,4.3-.64,8.63-1.21,12.91-1.48,11.17-7.97,16.55-19.79,16.53-11.81-.02-18.2-5.38-19.75-16.59-.18-1.32-.43-2.65-.42-3.97,.07-12.31-3.37-22.68-11.93-32.43-14.25-16.22-14.56-45.3-2.66-60.49,5.82-7.42,4.65-17.14,7.55-25.58,2.37-6.9,4.02-14.05,6.07-21.06,.48-1.65,1.51-3.06,3.48-3,2.02,.06,2.71,1.6,3.11,3.3,1.8,7.77,4.05,15.47,5.23,23.33,.95,6.31,4.94,5.95,9.39,5.97,4.5,.02,8.42,.25,9.35-6.03,1.11-7.53,3.32-14.9,5.03-22.34,.45-1.96,.74-4.19,3.34-4.19,2.43,0,3.15,1.99,3.71,4,1.88,6.72,3.88,13.4,5.7,20.14,3.01,11.13,4.22,22.74,11.59,32.51,4.31,5.71,3.98,13.22,4.18,20.21Z"/>
  <path class="cls-1" d="M194.2,95.93c16.78,17.37,18.87,64.53-8.22,85.49-5.83-6.35-8.44-14.77-13.52-21.58-.65-.87-.74-2.88-.18-3.82,5.41-9,4.95-20.46,12.96-28.54,7.84-7.92,9.39-18.61,8.97-31.55Z"/>
  <path class="cls-2" d="M141.47,153.95c6.61-10.7,12.32-19.93,18.62-30.12,5.76,18.39-.34,28.8-18.62,30.12Z"/>
  <path class="cls-1" d="M61.68,95.93c-16.78,17.37-18.87,64.53,8.22,85.49,5.83-6.35,8.44-14.77,13.52-21.58,.65-.87,.74-2.88,.18-3.82-5.41-9-4.95-20.46-12.96-28.54-7.84-7.92-9.39-18.61-8.97-31.55Z"/>
  <path class="cls-2" d="M115.46,153.95c-6.61-10.7-12.32-19.93-18.62-30.12-5.76,18.39,.34,28.8,18.62,30.12Z"/>
</svg>