<?xml version="1.0" encoding="UTF-8"?>
<svg id="Layer_1" data-name="Layer 1" xmlns="http://www.w3.org/2000/svg" viewBox="0 0 256 256">
  <defs>
    <style>
      .cls-1 {
        fill: #fff;
      }

      .cls-2 {
        fill: #dfbc28;
      }
    </style>
  </defs>
  <circle class="cls-2" cx="128" cy="128" r="128"/>
  <path class="cls-1" d="M112.94,205.87c-4.35-1.07-3.09-4.21-2.41-6.43,3.08-10.15,6.21-20.3,9.82-30.28,2.33-6.45,1.96-10.95-4.46-15.2-10.8-7.15-20.8-15.48-31.36-23-6.61-4.71-7.92-10.03-3.8-17.02,11.64-19.74,23.22-39.49,36.68-58.1,5.15-7.12,10.27-8.11,17.65-3.53,11.82,7.34,23.91,14.25,36.04,21.07,7.09,3.99,7.59,8.15,2.06,14.06-8.19,8.74-15.62,18.2-24.02,26.73-5.23,5.31-4.13,8.76,.94,12.93,6.41,5.28,12.52,10.94,18.74,16.46,3.68,3.27,4.04,6.56,.24,10.13-17.7,16.64-35.35,33.33-53.04,49.98-.94,.89-2.12,1.53-3.08,2.21Z"/>
</svg>