<?xml version="1.0" encoding="UTF-8"?>
<svg id="Layer_1" data-name="Layer 1" xmlns="http://www.w3.org/2000/svg" viewBox="0 0 256 256">
  <defs>
    <style>
      .cls-1 {
        fill: #fff;
      }

      .cls-2 {
        fill: #e18ce1;
      }

      .cls-3 {
        fill: #e291e2;
      }
    </style>
  </defs>
  <circle class="cls-2" cx="128" cy="128" r="128"/>
  <path class="cls-1" d="M168.54,132.61c3.77,6.74,7.72,12.55,9.17,19.5,2.22,10.62-1.21,14.8-11.95,15.74-7.15,.63-10.23,.58-23.99-6.3-.72,12.68,10.42,26.54,7.56,40.13-.3,1.42-2.11,1.88-3.1,.81-10.72-11.57-11.42-26.96-18.23-40.53-6.59,13.45-7.73,28.65-17.98,40.71-.94,1.1-2.77,.71-3.11-.7-3.31-13.62,7.93-26.82,7.68-39.39-4.82,3.96-16,5.77-22.74,5.34-12.59-.8-15.97-5-13.2-17.17,1.5-6.62,5.97-11.71,8.57-18.3-7.97-5.14-16.04-9.4-21.66-17.39-10.4-14.76-10.88-31.08-9.17-47.77,.67-6.56,6.56-8.82,12.68-9,22.43-.65,42.31,4.56,55.63,24.61q.69,1.04,3.11,5.35,2.46-3.75,3.18-4.86c13.12-20.16,32.89-25.76,55.37-25.1,9.84,.29,13.27,4.35,13.86,14.36,.99,16.72-1.38,32.29-12.39,45.93-5.05,6.25-12.22,8.98-19.28,14.02Z"/>
  <path class="cls-3" d="M128.01,97.38c3.43,10.49,11.99,18.83,23.75,18.89-4.1,10.72-12.19,14.1-21.2,14.91-10.89,.98-20.09-2.8-26.74-14.02,11.02-1.56,20.04-8.95,24.18-19.79Z"/>
</svg>