<?xml version="1.0" encoding="UTF-8"?>
<svg id="Layer_1" data-name="Layer 1" xmlns="http://www.w3.org/2000/svg" viewBox="0 0 256 256">
  <defs>
    <style>
      .cls-1 {
        fill: #fff;
      }

      .cls-2 {
        fill: #e49021;
      }
    </style>
  </defs>
  <circle class="cls-2" cx="128" cy="128" r="128"/>
  <path class="cls-1" d="M187.37,155.46c.55,.18,.95,.71,1.01,1.29,1.74,16.71-.12,19.56-15.05,25.28-18.32,7.01-37.09,12.47-56.28,16.61-6.49,1.4-12.82,1.23-18.55-1.56-9.55-4.66-18.43-10.58-26.79-17.18-2.9-2.29-4.35-5.25-4.45-8.92-.16-5.96,.32-11.94,0-17.9-.29-5.3,1.7-8.26,7.01-8.25,13.98,.02,27.96,0,41.94,.07,2.73,.01,5.69,.39,6.17,3.76,.85,6.07,5.16,6,9.64,6,14.98-.02,29.96-.02,44.94,.04,3.34,.01,6.74-.4,10.4,.77Z"/>
  <path class="cls-1" d="M66.79,97c0-7.65-.17-15.31,.05-22.96,.23-8.25,1.29-9.16,9.29-9.49,12.35-.52,13.55,.62,13.57,13.24,.03,14.31,.11,28.62-.05,42.92-.1,8.6-2.14,10.41-10.71,10.59-9.27,.18-11.82-1.83-12.08-10.34-.24-7.98-.05-15.97-.05-23.96,0,0-.01,0-.02,0Z"/>
  <path class="cls-1" d="M162.9,146.55c-6.65,0-13.31-.04-19.96,.01-6.12,.05-9.28-2.95-9.44-9.04-.09-3.32-.23-6.66,0-9.97,.36-5.39,3.15-8.73,8.81-8.76,13.64-.08,27.28,.01,40.91-.04,4.22-.02,5.58,2.08,6.03,6.1,2.32,20.72,1.48,21.77-19.36,21.77-2.33,0-4.66,0-6.99,0,0-.02,0-.05,0-.07Z"/>
  <path class="cls-1" d="M122.79,98.15c0,7.98,.25,15.96-.07,23.93-.3,7.37-2.74,9.14-11.13,9.21-8.7,.07-11.35-1.5-11.5-8.78-.36-16.61-.09-33.23-.15-49.85-.02-5.98,3.01-8.41,8.72-8.11,1.33,.07,2.66-.04,3.99,0,8.85,.21,9.91,1.08,10.13,9.67,.2,7.97,.04,15.95,.04,23.93,0,0-.02,0-.03,0Z"/>
  <path class="cls-1" d="M189.2,87.77c0,5.64,0,11.27,0,16.91,0,4.05-1.9,6.18-6.11,5.93-.66-.04-1.33,0-1.99,.03q-14.85,.61-14.86-14.08c0-7.3-.1-14.6,.04-21.89,.17-9.07,1.26-10.04,10.57-10.2,1.66-.03,3.32,.07,4.97,.05,4.94-.05,7.33,2.49,7.37,7.32,.04,5.31,0,10.61,0,15.92Z"/>
  <path class="cls-1" d="M156.1,88.09c0,5.33-.1,10.66,.03,15.99,.12,4.68-2.05,6.48-6.64,6.51-19.31,.12-16.06,.62-16.34-14.77-.14-7.66,.11-15.33,.03-22.99-.06-5.9,2.76-8.56,8.59-8.29,2.33,.11,4.66,.06,6.99,.05,5.03-.01,7.23,2.72,7.26,7.5,.03,5.33,0,10.66,0,15.99h.06Z"/>
</svg>