<?xml version="1.0" encoding="UTF-8"?>
<svg id="Layer_1" data-name="Layer 1" xmlns="http://www.w3.org/2000/svg" viewBox="0 0 256 256">
  <defs>
    <style>
      .cls-1 {
        fill: #fff;
      }

      .cls-2 {
        fill: #439837;
      }
    </style>
  </defs>
  <circle class="cls-2" cx="128" cy="128" r="128"/>
  <path class="cls-1" d="M194.3,86.12c2.2-2.13,1.76,4.2,1.52,6.15-4.07,32.61-8.97,65.08-16.15,97.16-1.92,8.61-3.33,9.71-12.1,9.84-9.68,.14-19.35,.06-28.95,.04-1.7,0-2.85-1.73-2.2-3.3,15.94-38.11,37.34-90.03,57.88-109.89Z"/>
  <path class="cls-1" d="M121.47,180.64c-.83-23.74,2.05-37.16,5.01-68.66,.12-1.32,.59-2.57,1.15-3.77,3.53-7.48,17.34-36.24,25.36-46.17,1.68-2.08,5.01-.95,5.18,1.71,.11,1.78,.04,3.44-.03,5.22-.89,20.31-3.29,40.49-6.19,60.6-.56,3.86-2.22,7.68-3.97,11.23-5.73,11.62,1.08-2.28-17.76,34.57-1.19,2.34-2.12,5.3-4.33,6.98-1.8,1.37-4.34,.55-4.42-1.7Z"/>
  <path class="cls-1" d="M116.82,86.12c2.2-2.13,1.76,4.2,1.52,6.15-4.07,32.61-8.97,65.08-16.15,97.16-1.92,8.61-3.33,9.71-12.1,9.84-9.68,.14-19.35,.06-28.95,.04-1.7,0-2.85-1.73-2.2-3.3,15.94-38.11,37.34-90.03,57.88-109.89Z"/>
</svg>