<?xml version="1.0" encoding="UTF-8"?>
<svg id="Layer_1" data-name="Layer 1" xmlns="http://www.w3.org/2000/svg" viewBox="0 0 256 256">
  <defs>
    <style>
      .cls-1 {
        fill: #47c8c8;
      }

      .cls-2 {
        fill: #fbfdfd;
      }

      .cls-3 {
        fill: #64cfcf;
      }
    </style>
  </defs>
  <circle class="cls-1" cx="128" cy="128" r="128"/>
  <path class="cls-2" d="M110.36,60.61c6.05-5.88,11.4-11.09,17.77-17.29,5.97,6.13,11.17,11.47,17.14,17.59-4.92,5.79-9.31,10.96-14.74,17.36,12.8,7.44,26.4,16.32,40.07,24.27v-23.26h24.01c0,7.81,.09,16.68,.09,25.33-21.7,0-5.65,.26-22.24,.26,0,15.36,.44,31.53,.44,47.51h21.79v24.18h-23.94v-21.88c-13.22,7.56-27.06,15.34-40.38,22.95,5.13,5.9,9.4,10.79,14.9,17.11-5.37,5.66-10.66,11.23-17.36,18.29-5.96-6.39-11.21-12.02-17.12-18.36,4.98-5.7,9.44-10.8,14.84-16.97-13.25-7.61-27-15.35-40.37-23.03v22.22h-24.05v-24.46h22.03c0-15.56-.08-32.89-.08-48.86l-22.05-.08v-24.22h24.22c0,21.72,0,2.88,0,21.24,13.09-7.41,26.69-14.32,40.16-21.95-5.03-5.96-9.38-11.12-15.15-17.95Z"/>
  <path class="cls-3" d="M96.46,140.79v-32.06c12.55-7.16,12.55-6.81,27.27-15.03l6.03,7.93c-22.64,12.82,.71-.29-22.64,12.82v26.34h-10.66Z"/>
</svg>