<?xml version="1.0" encoding="UTF-8"?>
<svg id="Layer_1" data-name="Layer 1" xmlns="http://www.w3.org/2000/svg" viewBox="0 0 256 256">
  <defs>
    <style>
      .cls-1 {
        fill: #fff;
      }

      .cls-2 {
        fill: #828282;
      }
    </style>
  </defs>
  <circle class="cls-2" cx="128" cy="128" r="128"/>
  <path class="cls-1" d="M129.76,204.09c-52.17,.13-86.62-49.01-69.05-96.43,1.58-4.26,2.06-8.18,.3-12.54-4.35-10.76-2.11-20.35,6.4-28.13,8.6-7.86,18.65-8.56,28.73-3.56,4.11,2.04,7.65,1.76,11.48,.67,13.45-3.84,26.89-3.86,40.31-.09,5.01,1.41,9.29,.9,14.31-1.24,9.79-4.16,19.59-3.35,27.74,4.64,8.34,8.17,9.92,17.82,5.48,28.33-1.7,4.02-1.86,7.6-.29,11.52,13.45,33.52-1.47,71.64-33.35,88.74-10.47,5.62-21.72,8.21-32.05,8.08Z"/>
  <path class="cls-2" d="M77.28,133.16c-1.34-26.26,21.93-51.19,50.24-51.09,28.36,.09,50.55,22.02,51.35,50.13,.68,24.05-19.28,50.72-50.39,51.16-27.94,.4-51.07-22.27-51.2-50.2Z"/>
</svg>