<?xml version="1.0" encoding="UTF-8"?>
<svg id="Layer_1" data-name="Layer 1" xmlns="http://www.w3.org/2000/svg" viewBox="0 0 256 256">
  <defs>
    <style>
      .cls-1 {
        fill: #fff;
      }

      .cls-2 {
        fill: #9354cb;
      }
    </style>
  </defs>
  <circle class="cls-2" cx="128" cy="128" r="128"/>
  <circle class="cls-1" cx="159.37" cy="123.2" r="16.8"/>
  <circle class="cls-1" cx="102.45" cy="86.6" r="28.2"/>
  <path class="cls-1" d="M197.45,191.55c2.36-1.5,3.12-3.08,3.28-4.91,.05-.38,.08-.77,.08-1.18,0-.27-.03-.52-.06-.76-.16-2.7-1.26-4.54-8.23-6.81-1.21-.39-2.54-.78-3.97-1.17-7.9-2.37-15.56-3.78-24.24-4.53-3.43-.44-6.99-.84-10.63-1.18-1.71-.52-2.31-1.28-2.72-2.44-.55-2.95-1.65-5.7-3.19-8.15-3.79-6.49-9.84-10.25-17.82-10.82-.49-.04-.98-.07-1.48-.08-.04,0-.08,0-.12,0-.03,0-.05,0-.08,0-.09,0-.18,0-.27,0-.27,0-.53,.01-.8,.02-9.24,.17-16.18,4.64-19.99,12.7-.62,1.22-1.15,2.49-1.55,3.82-.93,2.47-1.59,3.97-3.63,4.86-4.92,.42-9.65,.95-14.1,1.57-4.28,.46-8.51,1.21-12.7,2.17-5.5,1.14-10.17,2.43-13.73,3.8-.53,.19-1.04,.4-1.54,.63-4.26,1.9-4.63,3.67-4.66,5.88-.02,.26-.05,.52-.04,.8,0,.16,.03,.31,.04,.47,.06,2.53,.72,4.56,5.71,6.64,.94,.41,1.93,.76,2.94,1.08,1.65,.55,3.48,1.08,5.48,1.59,8.46,2.29,17.02,3.57,25.62,4.37,10.22,1.13,21.52,1.79,32.87,1.8,0,0,0,0,.01,0,0,0,0,0,0,0,.03,0,.06,0,.09,0,10.47,0,20.99-.59,30.65-1.59,10.15-.84,20.2-2.3,30.08-5.18,.46-.13,.91-.26,1.35-.39,.09-.03,.17-.05,.26-.08,2.29-.71,4.79-1.49,6.76-2.73,.08-.05,.16-.1,.25-.15,.02-.02,.05-.03,.07-.05Z"/>
</svg>