<?xml version="1.0" encoding="UTF-8"?>
<svg id="Layer_1" data-name="Layer 1" xmlns="http://www.w3.org/2000/svg" viewBox="0 0 256 256">
  <defs>
    <style>
      .cls-1 {
        fill: #fff;
      }

      .cls-2 {
        fill: #a9a481;
      }
    </style>
  </defs>
  <circle class="cls-2" cx="128" cy="128" r="128"/>
  <path class="cls-1" d="M199.67,98.23l-19.62-19.62,3.55,23.38c.03,.19-.2,.31-.34,.17l-29.18-29.18c-.14-.14-.02-.37,.17-.34l23.38,3.55-19.87-19.87s-.09-.06-.14-.06h-59.26c-.05,0-.1,.02-.14,.06l-41.9,41.9s-.06,.09-.06,.14v59.26c0,.05,.02,.1,.06,.14l19.53,19.53-9.71-45.05c-.04-.19,.2-.32,.34-.18l57.77,57.77c.14,.14,.01,.38-.18,.34l-45.05-9.71,19.21,19.21s.09,.06,.14,.06h59.26c.05,0,.1-.02,.14-.06l19.24-19.24-45.14,9.75c-.19,.04-.32-.2-.18-.34l57.76-57.76c.14-.14,.38-.01,.34,.18l-9.75,45.14,19.64-19.64s.06-.09,.06-.14v-59.26c0-.05-.02-.1-.06-.14Z"/>
</svg>