<?xml version="1.0" encoding="UTF-8"?>
<svg id="Layer_1" data-name="Layer 1" xmlns="http://www.w3.org/2000/svg" viewBox="0 0 256 256">
  <defs>
    <style>
      .cls-1 {
        fill: #fff;
      }

      .cls-2 {
        fill: #77b2cb;
      }

      .cls-3 {
        fill: #74b0cb;
      }
    </style>
  </defs>
  <circle class="cls-3" cx="128" cy="128" r="128"/>
  <path class="cls-1" d="M117.24,93.22c2.6,13.41,4.78,24.66,7.26,37.43-22.73,6.49-44.68,12.75-69.68,19.88,9.84-30.35,18.66-57.52,27.59-85.05h89.4c.95,2.01,2.13,4.49,3.84,8.09-19.64,6.61-38.27,12.88-58.41,19.65Z"/>
  <path class="cls-1" d="M200.8,150.53c-14.91,10.77-28.49,20.58-44.8,32.36-7.75-27.52-14.82-52.63-22.38-79.5,16.5-5.26,30.78-9.82,46.8-14.93,6.96,21.21,13.5,41.12,20.38,62.07Z"/>
  <path class="cls-1" d="M143.47,191.59c-5.22,3.98-10.06,7.68-15.77,12.03-19.71-14.37-38.84-28.32-61.19-44.61,22.17-6.41,40.89-11.82,61.12-17.66,5.46,17.32,10.48,33.22,15.85,50.24Z"/>
  <circle class="cls-2" cx="97.05" cy="80.81" r="7.64"/>
  <circle class="cls-2" cx="161.67" cy="116.95" r="10.41"/>
</svg>